<?xml version="1.0" standalone="no"?>
<!DOCTYPE svg PUBLIC "-//W3C//DTD SVG 1.1//EN" "http://www.w3.org/Graphics/SVG/1.1/DTD/svg11.dtd" >
<svg xmlns="http://www.w3.org/2000/svg">
<metadata>
Created by FontForge 20120731 at Thu Jul 13 14:49:32 2017
 By admin
</metadata>
<defs>
<font id="iconfont" horiz-adv-x="1024" >
  <font-face 
    font-family="iconfont"
    font-weight="500"
    font-stretch="normal"
    units-per-em="1024"
    panose-1="2 0 6 3 0 0 0 0 0 0"
    ascent="896"
    descent="-128"
    x-height="792"
    bbox="44 -70 963 834"
    underline-thickness="0"
    underline-position="0"
    unicode-range="U+0078-E62E"
  />
<missing-glyph 
 />
    <glyph glyph-name=".notdef" 
 />
    <glyph glyph-name=".notdef" 
 />
    <glyph glyph-name=".null" horiz-adv-x="0" 
 />
    <glyph glyph-name="nonmarkingreturn" horiz-adv-x="341" 
 />
    <glyph glyph-name="x" unicode="x" horiz-adv-x="1001" 
d="M281 543q-27 -1 -53 -1h-83q-18 0 -36.5 -6t-32.5 -18.5t-23 -32t-9 -45.5v-76h912v41q0 16 -0.5 30t-0.5 18q0 13 -5 29t-17 29.5t-31.5 22.5t-49.5 9h-133v-97h-438v97zM955 310v-52q0 -23 0.5 -52t0.5 -58t-10.5 -47.5t-26 -30t-33 -16t-31.5 -4.5q-14 -1 -29.5 -0.5
t-29.5 0.5h-32l-45 128h-439l-44 -128h-29h-34q-20 0 -45 1q-25 0 -41 9.5t-25.5 23t-13.5 29.5t-4 30v167h911zM163 247q-12 0 -21 -8.5t-9 -21.5t9 -21.5t21 -8.5q13 0 22 8.5t9 21.5t-9 21.5t-22 8.5zM316 123q-8 -26 -14 -48q-5 -19 -10.5 -37t-7.5 -25t-3 -15t1 -14.5
t9.5 -10.5t21.5 -4h37h67h81h80h64h36q23 0 34 12t2 38q-5 13 -9.5 30.5t-9.5 34.5q-5 19 -11 39h-368zM336 498v228q0 11 2.5 23t10 21.5t20.5 15.5t34 6h188q31 0 51.5 -14.5t20.5 -52.5v-227h-327z" />
    <glyph glyph-name="home" unicode="&#xe601;" 
d="M954 410l-423 416q-19 9 -38 0l-423 -416q-6 -7 -6 -26q13 -13 26 -13h51v-371q0 -25 18 -44.5t46 -19.5h198v205q0 9 8 17t18 8h166q10 0 18 -8t8 -17v-205h198q25 0 44.5 18t19.5 46v365h51q13 0 26 13q0 25 -6 32z" />
    <glyph glyph-name="quality" unicode="&#xe602;" 
d="M947 698q-6 6 -25 6q-26 -6 -71 -6q-189 0 -326 121q-5 10 -14 10t-18 -10q-146 -121 -327 -121q-10 0 -20.5 0.5t-18 1.5t-13.5 2t-9 1l-3 1q-19 0 -25 -6q-13 -13 -13 -20q0 -190 44 -329t110 -221q67 -90 151.5 -141t142.5 -51q63 0 148 51t153 141q62 85 104.5 223.5
t42.5 326.5q0 7 -13 20zM749 480l-263 -256q-6 -6 -19 -6t-19 6l-154 141q-9 9 -9 21t9 17q10 10 22 10t17 -10l128 -128l243 237q10 10 22 10t16 -10q14 -5 15.5 -16t-8.5 -16z" />
    <glyph glyph-name="statistics" unicode="&#xe603;" 
d="M608 410h-154q-14 0 -23 -9t-9 -23v-410q0 -14 9 -23t23 -9h154q14 0 23 9t9 23v410q0 9 -11 20.5t-21 11.5zM928 614h-154q-14 0 -23 -8.5t-9 -23.5v-614q0 -14 9 -23t23 -9h154q14 0 23 9t9 23v614q0 15 -9 23.5t-23 8.5zM282 275h-148q-14 0 -23 -8.5t-9 -23.5v-275
q0 -14 9 -23t23 -9h154q14 0 23 9t9 23v275q-11 32 -38 32zM678 774l-115 52q-19 9 -36.5 1.5t-27.5 -27.5q-9 -19 -1.5 -36.5t27.5 -27.5l6 -6l-435 -148q-19 -4 -28 -21t-4 -36q5 -14 17.5 -23t27.5 -9h19l435 153l-6 -6q-9 -19 -1.5 -36.5t26.5 -27.5h20q13 0 26 8t18 18
l52 108q9 19 4 37t-24 27z" />
    <glyph glyph-name="group" unicode="&#xe604;" 
d="M576 442q29 -20 70 -20q72 0 122.5 49.5t50.5 117.5q0 71 -50 118.5t-123 47.5q-34 18 -70 -6q33 -50 38 -71q13 -51 13 -83t-13 -83q-3 -15 -18.5 -39t-19.5 -31zM646 346h-32q47 -37 84 -84q61 -81 70 -185v-39q0 -25 -6 -38h153q18 0 28.5 11.5t10.5 26.5
q3 85 -38 156t-112.5 111.5t-157.5 40.5zM378 429q81 0 134 64q32 42 32 102q0 49 -32 103q-24 33 -60 51.5t-74 18.5q-72 0 -122.5 -50.5t-50.5 -122.5q0 -67 50.5 -116.5t122.5 -49.5zM595 262q-51 39 -83 52q-48 32 -134 32q-131 0 -222.5 -89.5t-91.5 -218.5
q0 -18 11.5 -28t26.5 -10h544q19 0 29 11.5t10 26.5v39q-9 93 -90 185z" />
    <glyph glyph-name="search" unicode="&#xe605;" 
d="M794 -38l-154 153q-92 -51 -192 -51q-104 0 -192.5 51.5t-140 140t-51.5 192.5q0 158 113 271t271 113t271 -113t113 -271q0 -100 -51 -192l153 -154q29 -28 29 -66.5t-29 -67.5q-28 -28 -70 -29.5t-70 23.5zM448 704q-106 0 -181 -75t-75 -181t75 -181t181 -75t181 75
t75 181t-75 181t-181 75z" />
    <glyph glyph-name="menu" unicode="&#xe606;" 
d="M64 736v-128h896v128h-896zM800 448h-736v-128h736v128zM64 32h896v128h-896v-128z" />
    <glyph glyph-name="user" unicode="&#xe607;" 
d="M698 397q-34 -44 -84 -70t-102 -26q-111 0 -186 96q-75 -50 -120.5 -129t-45.5 -172q0 -82 122 -128q96 -32 230 -32q144 0 230 38q66 27 94 61t28 67q0 92 -45 172t-121 123zM512 358q81 0 139.5 70.5t58.5 167t-58.5 166.5t-139.5 70t-139.5 -70t-58.5 -166.5
t58.5 -167t139.5 -70.5z" />
    <glyph glyph-name="view" unicode="&#xe608;" 
d="M512 691q-151 0 -272.5 -85t-175.5 -222q54 -137 175.5 -222t272.5 -85t272.5 85t175.5 222q-54 137 -175.5 222t-272.5 85zM512 179q-86 0 -145.5 59.5t-59.5 145.5t59.5 145.5t145.5 59.5t145.5 -59.5t59.5 -145.5t-59.5 -145.5t-145.5 -59.5zM512 506
q-53 0 -87.5 -34.5t-34.5 -87.5t34.5 -87.5t87.5 -34.5q52 0 87 36.5t35 85.5t-35 85.5t-87 36.5z" />
    <glyph glyph-name="assign" unicode="&#xe609;" 
d="M666 64q0 28 -19.5 46t-44.5 18v26h70q28 0 46 19t18 45q0 27 -19.5 45.5t-44.5 18.5h-77v38h135q27 0 45.5 19.5t18.5 44.5q0 28 -19.5 46t-44.5 18h-135v26h301q28 0 46 19t18 45q0 27 -19.5 45.5t-44.5 18.5h-486v32h160q27 0 45.5 19t18.5 45q0 27 -19.5 45.5
t-44.5 18.5h-244q-109 4 -185.5 -73.5t-76.5 -189.5v-230q0 -111 76.5 -190t185.5 -79h269q28 0 49.5 19.5t21.5 44.5z" />
    <glyph glyph-name="arrow-s" unicode="&#xe60a;" 
d="M63 -65h263v263z" />
    <glyph glyph-name="arrow-o" unicode="&#xe60b;" 
d="M736 294h-448q-19 -4 -32 -24t-13 -40q0 -17 11 -35.5t34 -47.5l147 -160q10 -23 31 -37t46 -14q24 0 45.5 12.5t31.5 32.5l147 160q1 2 4 5q41 54 41 78q0 21 -13.5 43.5t-31.5 26.5zM288 474h448q19 4 32 24t13 40q0 38 -45 83l-147 166q-10 20 -31.5 32.5t-45.5 12.5
t-45.5 -12.5t-31.5 -32.5l-147 -166q-45 -45 -45 -83q0 -20 13 -40t32 -24z" />
    <glyph glyph-name="tree-open" unicode="&#xe60c;" 
d="M512 832q-187 0 -317.5 -130.5t-130.5 -317.5t130.5 -317.5t317.5 -130.5t317.5 130.5t130.5 317.5t-130.5 317.5t-317.5 130.5zM512 19q-98 0 -182 48t-133.5 132.5t-49.5 184.5t49.5 184.5t133.5 132.5t182 48t182 -48t133.5 -132.5t49.5 -184.5t-49.5 -184.5
t-133.5 -132.5t-182 -48zM576 621h-128v-173h-173v-128h173v-173h128v173h173v128h-173v173z" />
    <glyph glyph-name="tree-close" unicode="&#xe60d;" 
d="M512 832q-187 0 -317.5 -130.5t-130.5 -317.5t130.5 -317.5t317.5 -130.5t317.5 130.5t130.5 317.5t-130.5 317.5t-317.5 130.5zM512 19q-98 0 -182 48t-133.5 132.5t-49.5 184.5t49.5 184.5t133.5 132.5t182 48t182 -48t133.5 -132.5t49.5 -184.5t-49.5 -184.5
t-133.5 -132.5t-182 -48zM275 320h467v128h-467v-128z" />
    <glyph glyph-name="arrow-p-l" unicode="&#xe60e;" 
d="M870 294h-448v-134q-4 -19 -24 -32t-40 -13q-38 0 -83 45l-166 147q-20 10 -32.5 31.5t-12.5 45.5t12.5 45.5t32.5 31.5l160 147q13 13 39.5 29t43.5 16q24 0 41.5 -13t22.5 -32v-134h448q43 0 69.5 -25.5t26.5 -64.5q0 -38 -25.5 -64t-64.5 -26z" />
    <glyph glyph-name="arrow-p-r" unicode="&#xe60f;" 
d="M64 384q0 38 25.5 64t64.5 26h448v134q4 19 24 32t40 13q21 0 44.5 -15t38.5 -30l160 -147q23 -10 37 -31t14 -46q0 -24 -12.5 -45.5t-32.5 -31.5l-160 -147q-16 -16 -40.5 -30.5t-42.5 -14.5q-24 0 -41.5 13t-22.5 32v134h-448q-43 0 -69.5 25.5t-26.5 64.5z" />
    <glyph glyph-name="arrow-d" unicode="&#xe610;" 
d="M747 475q0 -13 -6.5 -27t-13.5 -23t-20 -24l-128 -141q-24 -40 -70.5 -40t-70.5 39l-121 145q-40 40 -40 71q0 19 11 35.5t29 24.5h393q15 -5 26 -22.5t11 -37.5z" />
    <glyph glyph-name="login-user" unicode="&#xe611;" 
d="M704 397q-4 -4 -12 -13.5t-16 -17.5t-17 -14q69 -39 111.5 -107.5t42.5 -148.5q0 -44 -90 -76.5t-217 -32.5q-131 0 -219.5 30.5t-88.5 78.5q0 80 42.5 148.5t111.5 107.5q-6 19 -32 45q-79 -50 -126 -128.5t-47 -172.5q0 -82 122 -128q106 -32 243 -32q147 0 243 38
q122 46 122 128q0 91 -47.5 171t-125.5 124zM512 358q86 0 145.5 70t59.5 167t-59.5 167t-145.5 70t-145.5 -70t-59.5 -167t59.5 -167t145.5 -70zM512 774q59 0 103 -52t44 -127q0 -73 -42.5 -126t-104.5 -53t-104.5 53t-42.5 126q0 75 44 127t103 52z" />
    <glyph glyph-name="login-pw" unicode="&#xe612;" 
d="M730 550v58q0 96 -63 160t-155 64t-155 -64t-63 -160v-58q-57 -14 -92.5 -61t-35.5 -105v-275q0 -72 50.5 -122.5t122.5 -50.5h359q72 0 121.5 50.5t44.5 122.5v275q0 61 -37.5 106.5t-96.5 59.5zM358 608q0 61 47.5 107.5t106.5 46.5t106.5 -46.5t47.5 -107.5v-58h-308
v58zM806 102q0 -43 -36 -79t-79 -36h-358q-43 0 -79 36t-36 79v282q0 43 36 79t79 36h365q43 0 79 -36t36 -79v-282h-7zM525 288h-26q-14 0 -26 -12t-12 -26q0 -13 13 -26v-96q0 -14 12 -26t26 -12t26 12t12 26v96q13 13 13 26q0 14 -12 26t-26 12z" />
    <glyph glyph-name="none" unicode="&#xe613;" 
d="M320 115q-13 0 -13 7l-64 32v-20q0 -3 3.5 -9.5t3.5 -9.5l243 -147v282l-154 -128q-3 0 -9.5 -3.5t-9.5 -3.5zM326 160h7l128 115l-231 147h-12l-141 -115l243 -147h6zM224 480h6l250 154l-147 134h-13l-256 -160l154 -122q0 -2 1.5 -4t2.5 -2h2zM960 608l-256 160h-13
l-153 -128l249 -154h13zM806 422h-12l-237 -140l128 -116h13l236 141zM781 154l-64 -32q-3 0 -6.5 -3.5t-6.5 -3.5q-13 0 -19 7l-154 128v-282l237 147q6 0 6 19z" />
    <glyph glyph-name="close" unicode="&#xe614;" 
d="M512 832q-186 0 -320 -134q-85 -85 -115 -201t0 -232t115 -201q138 -128 320 -128q186 0 320 134q64 64 97 148t33 169t-33 169t-97 148q-138 128 -320 128zM717 186q-13 -13 -32 -13q-6 0 -10.5 1.5t-11.5 5.5t-10 6l-141 140l-147 -140q-13 -13 -32 -13q-6 0 -10.5 1.5
t-11.5 5.5t-10 6q-10 9 -10 28.5t10 28.5l153 141l-147 141q-9 9 -9 28.5t9.5 29t28.5 9.5t29 -10l147 -140l147 140q10 10 29 10t28.5 -9.5t9.5 -29t-9 -28.5l-147 -141l147 -141q9 -14 9 -31t-9 -26z" />
    <glyph glyph-name="player-play" unicode="&#xe615;" 
d="M870 442l-505 371q-15 10 -34.5 12.5t-37.5 -2.5t-30.5 -23t-12.5 -45v-736q0 -36 19.5 -55.5t46 -19t49.5 17.5l505 364q62 62 0 116z" />
    <glyph glyph-name="new-window" unicode="&#xe616;" 
d="M64 -64v896h301v-122h-179v-659h659v179h115v-294h-896zM838 627l-390 -390l-83 83l390 390h-153v122h358v-358h-122v153z" />
    <glyph glyph-name="player-voice" unicode="&#xe617;" 
d="M557 826l-314 -218h-141q-14 0 -26 -12t-12 -26v-365q0 -15 12 -27t26 -12h141l320 -224q19 -13 38.5 -3.5t19.5 29.5v826q0 17 -21 31t-43 1zM864 621q-10 9 -26 9t-25.5 -9.5t-9.5 -25.5t10 -25q72 -77 72 -182.5t-72 -182.5q-10 -10 -10 -26t10 -25q29 -22 51 0
q96 96 96 231t-96 236zM768 499q-10 10 -26 10t-25 -10q-21 -20 0 -51q24 -29 24 -66.5t-24 -61.5q-10 -10 -10 -26t10 -25q29 -22 51 0q48 48 48 115t-48 115z" />
    <glyph glyph-name="player-next" unicode="&#xe618;" 
d="M806 -64q-28 0 -46 17.5t-18 46.5v250l-416 -301q-22 -17 -49 -17.5t-46.5 19t-19.5 55.5v756q0 35 21 53.5t47.5 18t46.5 -14.5l416 -301v250q0 29 18 46.5t46.5 17.5t46 -17.5t17.5 -46.5v-768q0 -24 -20 -44t-44 -20z" />
    <glyph glyph-name="player-pause" unicode="&#xe619;" 
d="M346 -38q-39 0 -67.5 28.5t-28.5 67.5v652q0 39 28.5 67.5t67 28.5t67.5 -28.5t29 -67.5v-646q0 -43 -29 -72.5t-67 -29.5zM678 -38q-38 0 -67 28.5t-29 67.5v652q0 39 29 67.5t67.5 28.5t67 -28.5t28.5 -67.5v-646q5 -43 -23.5 -72.5t-72.5 -29.5z" />
    <glyph glyph-name="player-pre" unicode="&#xe61a;" 
d="M205 0v768q0 29 17.5 46.5t46.5 17.5t46.5 -17.5t17.5 -46.5v-250l416 301q20 14 46.5 14.5t47.5 -18t21 -53.5v-749q0 -28 -11.5 -46t-29 -24t-37.5 -3t-37 15l-416 301v-256q0 -29 -17.5 -46.5t-46.5 -17.5q-28 0 -46 19.5t-18 44.5z" />
    <glyph glyph-name="star" unicode="&#xe61b;" 
d="M794 269q-6 -6 -8.5 -13t1.5 -13l32 -198q9 -36 -19 -64q-17 -26 -58 -26q-25 0 -38 7l-179 96q-5 4 -13 4t-13 -4l-179 -96q-13 -7 -38 -7q-32 0 -58 26q-19 29 -19 64l32 198q0 19 -7 26l-140 141q-38 37 -20 83q5 20 23 35.5t41 15.5l199 32q16 0 25 19l90 186
q5 15 23 26.5t41 11.5t41.5 -12.5t28.5 -32.5l90 -185q0 -5 7 -9t12 -4l205 -32q43 -9 64 -51q5 -20 0 -41.5t-19 -35.5z" />
    <glyph glyph-name="erro" unicode="&#xe61c;" 
d="M941 179l-314 544q-18 33 -50 50.5t-65 17.5t-65 -17.5t-50 -50.5l-314 -544q-20 -33 -17.5 -69.5t18 -66.5t46.5 -49.5t68 -19.5h628q37 0 68 19.5t46.5 49.5t18 66.5t-17.5 69.5zM512 96q-19 0 -35 16t-16 35t16 35t35 16t35 -16t16 -35t-16 -35t-35 -16zM557 422
q0 -19 -3.5 -57.5t-3.5 -57.5v-38q0 -15 -12 -27t-26 -12q-16 0 -27 10.5t-11 28.5q0 29 -3.5 89.5t-3.5 89.5q0 32 -6 45q0 38 38 57q35 9 58 -25q6 -13 6 -26t-3 -38.5t-3 -38.5z" />
    <glyph glyph-name="loading" unicode="&#xe61d;" 
d="M512 832q-187 0 -317.5 -130.5t-130.5 -317.5t130.5 -317.5t317.5 -130.5t317.5 130.5t130.5 317.5t-130.5 317.5t-317.5 130.5zM710 237q-2 -3 -2 -6t1 -5l1 -2h26q19 0 19 -19v-39q0 -19 -19 -19h-160q-19 0 -19 19v154q0 19 19 19h38q20 0 20 -19v-13q0 -5 4 -9
t8.5 -4t5.5 1t1 6q19 38 19 83q0 67 -46.5 113.5t-113.5 46.5t-113.5 -46.5t-46.5 -113.5q0 -53 30.5 -96t78.5 -58q4 0 8.5 -6.5t4.5 -12.5v-45q0 -10 -8.5 -16.5t-17.5 -2.5q-78 25 -128.5 90.5t-50.5 146.5q0 101 71 172t172 71t172 -71t71 -172q0 -80 -45 -147z" />
    <glyph glyph-name="ok" unicode="&#xe61e;" 
d="M512 832q-187 0 -317.5 -130.5t-130.5 -317.5t130.5 -317.5t317.5 -130.5t317.5 130.5t130.5 317.5t-130.5 317.5t-317.5 130.5zM762 531l-276 -307q-12 -13 -25 -13t-19 7l-173 140q-14 10 -15.5 23t8.5 22q25 25 52 7l147 -116l256 288q20 21 51 0q12 -23 -6 -51z" />
    <glyph glyph-name="time" unicode="&#xe61f;" 
d="M826 698q-125 134 -314 134t-314 -134q-134 -125 -134 -314t134 -314q125 -134 314 -134t314 134q134 125 134 314t-134 314zM710 243q-6 -6 -12.5 -6t-12.5 6l-186 128q-6 7 -6 13v224q0 19 19 19t19 -19v-211l179 -122q11 -21 0 -32z" />
    <glyph glyph-name="flag" unicode="&#xe620;" 
d="M755 832h-518q-34 0 -58.5 -22t-24.5 -55v-768q0 -19 12 -32q10 -19 32 -19q13 0 39 13l230 198q13 13 26 13t25 -13l231 -198q13 -13 38 -13q17 0 28 12.5t11 38.5v768q4 32 -18 54.5t-53 22.5z" />
    <glyph glyph-name="file" unicode="&#xe621;" 
d="M883 576l-275 250q-7 0 -15 3t-11 3h-416q-14 0 -26 -12t-12 -26v-820q0 -14 12 -26t26 -12h692q14 0 26 12t12 26v576q0 13 -13 26zM659 102h-294q-15 0 -27 12t-12 26.5t12 26.5t27 12h294q15 0 27 -12t12 -26.5t-12 -26.5t-27 -12zM659 301h-294q-15 0 -27 12
t-12 26.5t12 26.5t27 12h294q15 0 27 -12t12 -27q0 -18 -11.5 -28t-27.5 -10zM621 557v153l166 -153h-166z" />
    <glyph glyph-name="tel-in" unicode="&#xe622;" 
d="M922 518q-103 -162 -231 -300q-45 -54 -125 -116t-137.5 -99t-57.5 -35q-5 -4 -14 -9t-37.5 -14t-57.5 -9q-81 0 -139.5 58.5t-58.5 140t58.5 140t139.5 58.5q73 0 135 -51q71 60 121 109t90 102q-51 61 -51 141q0 81 58.5 139.5t139.5 58.5q86 0 145.5 -58t59.5 -140
q0 -68 -38 -116zM288 550h-134q-20 0 -32.5 13t-12.5 32q-5 19 7 32t31 13h45l-115 115q-15 15 -15 32.5t14.5 32t32 14.5t32.5 -15l115 -115v45q0 15 13.5 30t31.5 15t31.5 -15t13.5 -30v-141q0 -32 -13 -38q-13 -20 -45 -20z" />
    <glyph glyph-name="tel-out" unicode="&#xe623;" 
d="M102 518q28 -45 56.5 -86.5t61 -83.5t53.5 -67t60 -70q45 -54 125.5 -116t137 -98t57.5 -35q5 -4 14 -9.5t37.5 -14t57.5 -8.5q81 0 139.5 58t58.5 140t-58.5 140t-139.5 58q-73 0 -135 -51q-15 15 -57.5 57t-60 60t-45.5 49t-48 58q24 24 37.5 60t13.5 75
q0 82 -59.5 140t-145.5 58q-81 0 -139.5 -58.5t-58.5 -139.5q0 -68 38 -116zM902 832h-134q-19 0 -32 -13t-13 -32t13 -32t32 -13h38l-115 -115q-14 -14 -14 -31.5t14.5 -32t32 -14.5t31.5 14l115 115v-44q0 -20 13 -32.5t32 -12.5t32 12.5t13 32.5v147q0 32 -13 38
q-13 13 -45 13z" />
    <glyph glyph-name="edit" unicode="&#xe624;" 
d="M909 781q-48 48 -118.5 48t-118.5 -48l-544 -544q-6 -7 -6 -13l-58 -250q0 -19 6 -25q5 -9 10 -11t16 -2h6l250 58q3 0 6 1.5l5 2.5l2 2l544 544q53 48 53 118.5t-53 118.5zM134 6l39 186l147 -147zM819 538l-153 153l44 39l154 -154zM454 -58h506v84h-422zM557 64h403
v83h-320z" />
    <glyph glyph-name="del" unicode="&#xe625;" 
d="M704 704v128h-384v-128h-224v-77h77l51 -691h576l51 685h77v83h-224zM397 755h224v-51h-224v51zM730 13h-436l-44 608h524zM544 493h-64v-346h64v346zM422 493h-64v-346h64v346zM659 493h-64v-346h64v346z" />
    <glyph glyph-name="lock" unicode="&#xe626;" 
d="M730 550v58q0 96 -63 160t-155 64t-155 -64t-63 -160v-58q-57 -14 -92.5 -61t-35.5 -105v-275q0 -72 50.5 -122.5t122.5 -50.5h359q72 0 121.5 50.5t44.5 122.5v275q0 61 -37.5 106.5t-96.5 59.5zM550 218v-96q0 -15 -12 -27t-26 -12t-26 12t-12 27v96q-13 12 -13 25
q0 15 12 27t26 12h26q14 0 26 -12t12 -27q0 -13 -13 -25zM640 550h-256v58q0 63 35.5 102t92.5 39t89.5 -39t32.5 -102v-58h6z" />
    <glyph glyph-name="set" unicode="&#xe627;" 
d="M83 230l83 -140q5 -14 17.5 -19.5t27.5 -0.5l122 39q6 -3 15.5 -9.5t16.5 -9.5l25 -122q11 -32 39 -32h160q15 0 26.5 9t11.5 23l26 122q6 3 15.5 9.5t16.5 9.5l121 -39q32 -10 52 20l83 140q18 27 -7 52l-96 83v19v19l96 83q25 25 7 52l-83 140q-5 14 -18 19.5t-27 0.5
l-122 -39q-6 3 -15.5 9.5t-16.5 9.5l-25 122q-11 32 -39 32h-166q-28 0 -39 -32l-25 -128q-6 0 -10.5 -1.5t-11.5 -5.5t-10 -6l-122 39q-15 5 -27.5 -0.5t-17.5 -19.5l-83 -140q-18 -27 7 -52l96 -83v-38l-96 -83q-25 -25 -7 -52zM512 544q67 0 113.5 -46.5t46.5 -113.5
t-46.5 -113.5t-113.5 -46.5t-113.5 46.5t-46.5 113.5t46.5 113.5t113.5 46.5z" />
    <glyph glyph-name="privilege" unicode="&#xe628;" 
d="M896 160h-422q-15 0 -23.5 -9t-8.5 -23v-141q0 -14 8.5 -23t23.5 -9h422q14 0 23 9t9 23v141q0 14 -9 23t-23 9zM243 173q-20 20 -51 0l-90 -90q-20 -20 0 -51l90 -90q20 -20 51 0l90 90q20 20 0 51zM896 486h-422q-15 0 -23.5 -8.5t-8.5 -23.5v-140q0 -15 8.5 -23.5
t23.5 -8.5h422q14 0 23 8.5t9 23.5v140q0 15 -9 23.5t-23 8.5zM243 499q-9 10 -22 10t-23 -10l-89 -89q-21 -21 0 -52l89 -89q21 -21 52 0l89 89q21 21 0 52zM896 806h-422q-15 0 -23.5 -8.5t-8.5 -23.5v-134q0 -14 8.5 -23t23.5 -9h422q14 0 23 9t9 23v134q0 15 -9 23.5
t-23 8.5zM243 819q-20 21 -51 0l-83 -89q-21 -21 0 -52l89 -89q10 -10 23 -10t22 10l90 89q20 21 0 52z" />
    <glyph glyph-name="check" unicode="&#xe629;" 
d="M845 -64h-666q-48 0 -81.5 33.5t-33.5 81.5v666q0 48 33.5 81.5t81.5 33.5h666q48 0 81.5 -33.5t33.5 -81.5v-666q0 -48 -33.5 -81.5t-81.5 -33.5zM749 602l-301 -295l-128 128l-70 -70l134 -135l64 -70l70 70l295 295z" />
    <glyph glyph-name="percentage" unicode="&#xe62a;" 
d="M845 269h-26q26 64 26 115q0 64 -26 115h26q48 0 81.5 -33.5t33.5 -81.5t-33.5 -81.5t-81.5 -33.5zM569.5 160q-91.5 0 -157.5 66.5t-66 157.5t66 157.5t157.5 66.5t158 -66.5t66.5 -157.5t-66.5 -157.5t-158 -66.5zM179 269q-48 0 -81.5 33.5t-33.5 81.5t33.5 81.5
t81.5 33.5h135q-26 -51 -26 -115t26 -115h-135z" />
    <glyph glyph-name="radio" unicode="&#xe62b;" 
d="M512 832q-187 0 -317.5 -130.5t-130.5 -317.5t130.5 -317.5t317.5 -130.5t317.5 130.5t130.5 317.5t-130.5 317.5t-317.5 130.5zM512 6q-104 0 -191 50t-137 137t-50 191t50 191t137 137t191 50t191 -50t137 -137t50 -191t-50 -191t-137 -137t-191 -50zM512 582
q-82 0 -140 -58t-58 -140t58 -140t140 -58t140 58t58 140t-58 140t-140 58z" />
    <glyph glyph-name="input" unicode="&#xe62c;" 
d="M64 723v-672h896v672h-896zM851 160h-678v448h672v-448h6zM397 550h-109v-339h115v339h-6z" />
    <glyph glyph-name="add" unicode="&#xe62d;" 
d="M64 480h896v-192h-896v192zM416 -64v896h192v-896h-192z" />
    <glyph glyph-name="date" unicode="&#xe62e;" 
d="M320 659h45q9 0 14 7.5t5 18.5v121q0 26 -26 26h-38q-14 0 -23 -8t-9 -18v-121q0 -10 9 -18t23 -8zM666 659h38q10 0 18 8t8 18v121q4 10 -4 18t-22 8h-45q-9 0 -14 -7.5t-5 -18.5v-121q0 -26 26 -26zM838 768h-44v-83q0 -34 -25 -58.5t-59 -24.5h-44q-34 0 -59 24.5
t-25 58.5v83h-140v-83q0 -34 -25 -58.5t-59 -24.5h-38q-37 0 -60 24t-23 59v83h-51q-49 0 -85.5 -38t-36.5 -90v-576q0 -52 36.5 -90t85.5 -38h646q52 0 87 37.5t35 90.5v576q4 52 -31.5 90t-84.5 38zM896 64q0 -19 -22.5 -41.5t-41.5 -22.5h-640q-19 0 -41.5 22.5
t-22.5 41.5v480h768v-480zM352 416h-128v-96h128v96zM576 416h-128v-96h128v96zM800 416h-128v-96h128v96zM352 256h-128v-96h128v96zM576 256h-128v-96h128v96zM800 256h-128v-96h128v96z" />
  </font>
</defs>
</svg>
